<svg width="14" height="14" viewBox="0 0 14 14" fill="none" xmlns="http://www.w3.org/2000/svg">
<path d="M12.0769 1H1.92308C1.41328 1 1 1.41328 1 1.92308V6.53846C1 7.04826 1.41328 7.46154 1.92308 7.46154H12.0769C12.5867 7.46154 13 7.04826 13 6.53846V1.92308C13 1.41328 12.5867 1 12.0769 1Z" stroke="#4A51CC" stroke-linecap="round" stroke-linejoin="round"/>
<path d="M10.6923 7.46064V5.61448C10.6923 5.36967 10.5951 5.13488 10.422 4.96177C10.2488 4.78866 10.0141 4.69141 9.76924 4.69141H4.23078C3.98596 4.69141 3.75117 4.78866 3.57806 4.96177C3.40495 5.13488 3.3077 5.36967 3.3077 5.61448V7.46064M3.3077 10.2299L2.84616 12.9991M7.00001 10.2299V12.9991M10.6923 10.2299L11.1539 12.9991" stroke="#4A51CC" stroke-linecap="round" stroke-linejoin="round"/>
</svg>
