<svg width="13" height="19" viewBox="0 0 13 19" fill="none" xmlns="http://www.w3.org/2000/svg">
<path fill-rule="evenodd" clip-rule="evenodd" d="M5.54494 9.95517L0.611384 0.675565C0.583041 0.622259 0.565474 0.563892 0.559688 0.503797C0.553901 0.443702 0.560008 0.383056 0.57766 0.325321C0.613308 0.20872 0.693816 0.111056 0.801472 0.0538136C0.909129 -0.00342849 1.03512 -0.0155597 1.15172 0.0200888C1.20945 0.0377401 1.26314 0.0665903 1.30973 0.104992C1.35631 0.143394 1.39488 0.190596 1.42322 0.243902L6.35724 9.52351L7.05691 9.15115C7.27016 9.03778 7.50365 8.96752 7.74405 8.9444C7.98446 8.92128 8.22706 8.94575 8.45801 9.0164C8.68895 9.08705 8.90372 9.2025 9.09004 9.35616C9.27636 9.50982 9.43059 9.69868 9.54391 9.91196L9.8418 10.4723L13 15.0942L8.98307 17.2295L7.59155 14.4791L6.77143 14.8942L8.17123 17.6617L6.44918 18.5769L4.38281 13.374L4.08538 12.8141C3.97199 12.6009 3.90171 12.3674 3.87856 12.127C3.8554 11.8866 3.87983 11.644 3.95043 11.4131C4.02104 11.1821 4.13645 10.9674 4.29006 10.781C4.44368 10.5947 4.63249 10.4404 4.84573 10.3271L5.54494 9.95517ZM7.48811 9.96345L5.27693 11.1389C5.17031 11.1956 5.07591 11.2727 4.9991 11.3659C4.92229 11.4591 4.86459 11.5664 4.82928 11.6819C4.79398 11.7974 4.78177 11.9187 4.79335 12.0389C4.80492 12.1591 4.84006 12.2758 4.89676 12.3824L5.19418 12.9423L9.0295 10.9031L8.73162 10.3436C8.67493 10.237 8.59781 10.1426 8.50464 10.0658C8.41147 9.98898 8.30408 9.93128 8.18861 9.89597C8.07314 9.86067 7.95184 9.84846 7.83165 9.86004C7.71146 9.87161 7.59472 9.90675 7.48811 9.96345Z" fill="#ECB831"/>
<path d="M3.57099 14.441C3.493 14.3473 3.38101 14.2884 3.25963 14.2773C3.13826 14.2662 3.01743 14.3037 2.92372 14.3817H2.92464L2.91959 14.3853L2.89063 14.4074C2.84949 14.4383 2.80749 14.4681 2.76467 14.4966C2.65066 14.5724 2.48057 14.6759 2.26175 14.7798C1.6993 15.0501 1.08374 15.1919 0.459705 15.1949C0.337784 15.1949 0.220856 15.2433 0.134645 15.3295C0.0484332 15.4157 0 15.5327 0 15.6546C0 15.7765 0.0484332 15.8934 0.134645 15.9797C0.220856 16.0659 0.337784 16.1143 0.459705 16.1143C1.22052 16.1114 1.97114 15.9391 2.6571 15.61C2.87107 15.5087 3.07754 15.3922 3.27494 15.2615C3.34885 15.2121 3.42091 15.16 3.491 15.1052L3.50479 15.0947L3.50939 15.091L3.51077 15.0892H3.51169L3.51215 15.0882C3.60575 15.0102 3.66453 14.8982 3.67557 14.7768C3.6866 14.6554 3.64898 14.5346 3.57099 14.441ZM4.51982 16.7786C4.55333 16.8288 4.57662 16.8851 4.58836 16.9444C4.6001 17.0036 4.60005 17.0645 4.58823 17.1238C4.5764 17.183 4.55303 17.2393 4.51944 17.2894C4.48586 17.3396 4.44272 17.3827 4.39248 17.4162L4.39156 17.4171L4.38972 17.418L4.38513 17.4208L4.37088 17.43C4.29128 17.4806 4.21051 17.5293 4.12861 17.5762C3.96726 17.6686 3.73786 17.7913 3.46204 17.9136C2.91959 18.1549 2.16107 18.4128 1.37912 18.4128C1.25719 18.4128 1.14027 18.3644 1.05405 18.2782C0.967843 18.192 0.91941 18.075 0.91941 17.9531C0.91941 17.8312 0.967843 17.7143 1.05405 17.6281C1.14027 17.5418 1.25719 17.4934 1.37912 17.4934C1.97581 17.4934 2.59733 17.2916 3.08876 17.0732C3.34478 16.959 3.59323 16.8285 3.83256 16.6825C3.84597 16.6746 3.85915 16.6663 3.8721 16.6577L3.88129 16.6522L3.88221 16.6512C3.93243 16.6177 3.98877 16.5944 4.048 16.5827C4.10722 16.571 4.16818 16.571 4.22739 16.5828C4.2866 16.5946 4.3429 16.618 4.39308 16.6516C4.44325 16.6852 4.48632 16.7283 4.51982 16.7786Z" fill="#ECB831"/>
</svg>
