<svg width="12" height="16" viewBox="0 0 12 16" fill="none" xmlns="http://www.w3.org/2000/svg">
<path d="M5.23011 9.62365L0.668505 9.04623C0.347717 9.00774 0.139077 8.83451 0.0425838 8.52655C-0.0539092 8.2186 0.0135846 7.95555 0.245065 7.73742L8.1172 0.192485C8.18136 0.128327 8.25835 0.0800807 8.34817 0.0477453C8.43799 0.0154099 8.55989 -0.000501231 8.71387 1.20295e-05C8.9705 1.20295e-05 9.1663 0.10908 9.30129 0.327216C9.43628 0.545351 9.43936 0.769903 9.31053 1.00087L6.76989 5.77419L11.3315 6.35161C11.6523 6.39011 11.8609 6.56333 11.9574 6.87129C12.0539 7.17924 11.9864 7.44229 11.7549 7.66043L3.8828 15.2054C3.81864 15.2695 3.74165 15.3178 3.65183 15.3501C3.56201 15.3824 3.44011 15.3983 3.28613 15.3978C3.0295 15.3978 2.83369 15.2888 2.69871 15.0706C2.56372 14.8525 2.56064 14.6279 2.68947 14.397L5.23011 9.62365Z" fill="#3B46A7"/>
</svg>
