<svg width="13" height="15" viewBox="0 0 13 15" fill="none" xmlns="http://www.w3.org/2000/svg">
<path d="M11.5687 5.2125L8.925 2.56875L7.33125 4.14375L5.7375 2.56875L7.85625 0.43125C8.00625 0.28125 8.175 0.172 8.3625 0.1035C8.55 0.035 8.7375 0.0005 8.925 0C9.125 0 9.31575 0.0345 9.49725 0.1035C9.67875 0.1725 9.838 0.28175 9.975 0.43125L11.5687 2.025C11.7937 2.2375 11.9595 2.4845 12.066 2.766C12.1725 3.0475 12.2255 3.33175 12.225 3.61875C12.225 3.90625 12.172 4.1875 12.066 4.4625C11.96 4.7375 11.7942 4.9875 11.5687 5.2125ZM1.2375 8.6625C1.0125 8.4375 0.9 8.17175 0.9 7.86525C0.9 7.55875 1.0125 7.29325 1.2375 7.06875L3.075 5.2125L4.66875 6.80625L2.8125 8.6625C2.6 8.8875 2.3405 9 2.034 9C1.7275 9 1.462 8.8875 1.2375 8.6625ZM0.43125 14.2313C0.29375 14.0813 0.1875 13.9157 0.1125 13.7347C0.0375001 13.5538 0 13.363 0 13.1625C0 12.9625 0.0345 12.772 0.1035 12.591C0.1725 12.41 0.28175 12.2443 0.43125 12.0938L5.7375 6.80625L3.35625 4.40625C3.13125 4.19375 3.01875 3.9345 3.01875 3.6285C3.01875 3.3225 3.13125 3.05675 3.35625 2.83125C3.56875 2.60625 3.83125 2.49375 4.14375 2.49375C4.45625 2.49375 4.725 2.60625 4.95 2.83125L7.33125 5.2125L8.4 4.14375L10.5 6.28125C10.65 6.43125 10.725 6.60625 10.725 6.80625C10.725 7.00625 10.65 7.18125 10.5 7.33125C10.35 7.48125 10.175 7.55625 9.975 7.55625C9.775 7.55625 9.6 7.48125 9.45 7.33125L2.55 14.2313C2.4 14.3813 2.23425 14.4908 2.05275 14.5597C1.87125 14.6287 1.687 14.663 1.5 14.6625C1.3125 14.6625 1.125 14.625 0.9375 14.55C0.75 14.475 0.58125 14.3688 0.43125 14.2313Z" fill="#8F4AC1"/>
</svg>
