<svg width="12" height="15" viewBox="0 0 12 15" fill="none" xmlns="http://www.w3.org/2000/svg">
<path d="M5.25 14.25C4.8375 14.25 4.48425 14.103 4.19025 13.809C3.89625 13.515 3.7495 13.162 3.75 12.75V9.75H1.5C1.0875 9.75 0.734251 9.603 0.440251 9.309C0.146251 9.015 -0.000498727 8.662 1.27335e-06 8.25V3C1.27335e-06 2.175 0.293751 1.46875 0.881251 0.88125C1.46875 0.29375 2.175 0 3 0H12V8.25C12 8.6625 11.853 9.01575 11.559 9.30975C11.265 9.60375 10.912 9.7505 10.5 9.75H8.25V12.75C8.25 13.1625 8.103 13.5157 7.809 13.8097C7.515 14.1037 7.162 14.2505 6.75 14.25H5.25ZM1.5 5.25H10.5V1.5H9.75V4.5H8.25V1.5H7.5V3H6V1.5H3C2.5875 1.5 2.23425 1.647 1.94025 1.941C1.64625 2.235 1.4995 2.588 1.5 3V5.25Z" fill="#DC849D"/>
</svg>
