<svg width="12" height="12" viewBox="0 0 12 12" fill="none" xmlns="http://www.w3.org/2000/svg">
<path d="M10.6235 11.6761L7.07692 8.12955L8.43724 6.76923L11.9838 10.3158L10.6235 11.6761ZM1.68421 11.6761L0.323886 10.3158L4.79352 5.84615L3.6923 4.74494L3.23886 5.19838L2.41295 4.37247V5.7004L1.95951 6.15384L0 4.19433L0.453441 3.74089H1.78138L0.971659 2.93117L3.27125 0.631579C3.48718 0.415655 3.7193 0.25911 3.96761 0.161944C4.21592 0.0647779 4.46963 0.016195 4.72874 0.016195C4.98785 0.016195 5.24156 0.0647779 5.48987 0.161944C5.73819 0.25911 5.97031 0.415655 6.18623 0.631579L4.69635 2.12146L5.50607 2.93117L5.05263 3.38461L6.15384 4.48583L7.61133 3.02834C7.56814 2.90958 7.53316 2.78542 7.50639 2.65587C7.47962 2.52631 7.46601 2.39676 7.46558 2.26721C7.46558 1.63023 7.68431 1.09301 8.12177 0.655547C8.55924 0.218084 9.09624 -0.00043121 9.73279 6.38829e-07C9.89473 6.38829e-07 10.0487 0.016195 10.1946 0.0485836C10.3406 0.0809723 10.489 0.129555 10.6397 0.194333L9.03643 1.79757L10.2024 2.96356L11.8057 1.36032C11.8812 1.51147 11.9326 1.65981 11.9598 1.80534C11.987 1.95088 12.0004 2.10483 12 2.26721C12 2.90418 11.7815 3.4414 11.3444 3.87886C10.9074 4.31633 10.3702 4.53484 9.73279 4.53441C9.60323 4.53441 9.47368 4.52361 9.34412 4.50202C9.21457 4.48043 9.09041 4.44264 8.97165 4.38866L1.68421 11.6761Z" fill="#C44FC0"/>
</svg>
