<svg width="12" height="11" viewBox="0 0 12 11" fill="none" xmlns="http://www.w3.org/2000/svg">
<path d="M6.00751 10.8135C5.10638 10.8135 4.31539 10.5256 3.63454 9.94964C2.95369 9.37372 2.5582 8.6404 2.44806 7.74969C1.72716 7.60951 1.13882 7.25907 0.683054 6.69837C0.227285 6.13767 -0.000399973 5.49687 5.27437e-07 4.77597C5.27437e-07 3.94493 0.292967 3.24165 0.878899 2.66613C1.46483 2.09061 2.17312 1.80265 3.00375 1.80225H4.50563C4.58573 1.80225 4.65582 1.77222 4.71589 1.71214C4.77597 1.65207 4.80601 1.58198 4.80601 1.50188C4.80601 1.42178 4.77597 1.35169 4.71589 1.29162C4.65582 1.23154 4.58573 1.2015 4.50563 1.2015H3.60451C3.43429 1.2015 3.29151 1.14383 3.17617 1.02849C3.06083 0.913143 3.00335 0.770565 3.00375 0.600753C3.00375 0.43054 3.06143 0.287762 3.17677 0.172418C3.29211 0.0570734 3.43469 -0.000398422 3.60451 2.07872e-06H4.50563C4.92616 2.07872e-06 5.2816 0.145183 5.57196 0.435546C5.86233 0.725909 6.00751 1.08135 6.00751 1.50188C6.00751 1.9224 5.86233 2.27785 5.57196 2.56821C5.2816 2.85857 4.92616 3.00376 4.50563 3.00376H3.00375C2.50313 3.00376 2.0776 3.17397 1.72716 3.51439C1.37672 3.85482 1.2015 4.27034 1.2015 4.76095C1.2015 5.16145 1.31665 5.52451 1.54693 5.85011C1.77722 6.17572 2.0826 6.3984 2.46308 6.51815C2.62328 5.66708 3.03139 4.96881 3.68741 4.42333C4.34343 3.87785 5.10678 3.60491 5.97747 3.60451C6.17772 3.60451 6.37056 3.61712 6.55599 3.64235C6.74143 3.66759 6.92906 3.71004 7.1189 3.76971C6.60826 3.97998 6.19534 4.31039 5.88015 4.76095C5.56496 5.21151 5.40716 5.71214 5.40676 6.26283C5.40676 6.63329 5.46683 6.99374 5.58698 7.34418C5.70713 7.69462 5.91239 7.98498 6.20275 8.21527L6.60826 7.80976C6.398 7.61952 6.24541 7.39424 6.15049 7.13392C6.05557 6.87359 6.00791 6.59825 6.00751 6.30789C6.00751 5.71715 6.21276 5.21892 6.62328 4.81322C7.03379 4.40751 7.53442 4.20486 8.12515 4.20526C8.70588 4.20526 9.1991 4.40791 9.6048 4.81322C10.0105 5.21852 10.2132 5.70673 10.2128 6.27785C10.2128 6.51815 10.1701 6.75104 10.0848 6.97652C9.9995 7.202 9.87194 7.39965 9.70212 7.56946L11.5945 9.22153C11.7146 9.33166 11.8124 9.45442 11.8877 9.58979C11.9629 9.72515 12.0004 9.87274 12 10.0325C12 10.2628 11.9023 10.4507 11.7068 10.596C11.5114 10.7414 11.2837 10.8139 11.0238 10.8135H6.00751ZM9.01126 9.61201C9.18147 9.61201 9.32425 9.55434 9.4396 9.439C9.55494 9.32365 9.61241 9.18108 9.61201 9.01126C9.61201 8.84105 9.55434 8.69827 9.439 8.58293C9.32365 8.46758 9.18107 8.41011 9.01126 8.41051C8.84105 8.41051 8.69827 8.46818 8.58293 8.58353C8.46758 8.69887 8.41011 8.84145 8.41051 9.01126C8.41051 9.18148 8.46818 9.32425 8.58353 9.4396C8.69887 9.55494 8.84145 9.61241 9.01126 9.61201Z" fill="#F4B380"/>
</svg>
